<svg width="58" height="62" viewBox="0 0 58 62" fill="none" xmlns="http://www.w3.org/2000/svg">
<g clip-path="url(#clip0_7_1829)">
<path d="M5.4375 13.5625V9.6875C5.4375 8.91671 5.72394 8.1775 6.2338 7.63247C6.74367 7.08744 7.43519 6.78125 8.15625 6.78125H53.4688C54.1898 6.78125 54.8813 7.08744 55.3912 7.63247C55.9011 8.1775 56.1875 8.91671 56.1875 9.6875V40.6875C56.1875 41.4583 55.9011 42.1975 55.3912 42.7425C54.8813 43.2876 54.1898 43.5938 53.4688 43.5938H8.15625C7.43519 43.5938 6.74367 43.2876 6.2338 42.7425C5.72394 42.1975 5.4375 41.4583 5.4375 40.6875V21.3125" fill="#E3FCFD"/>
<path d="M23.5625 44.5625H38.0625V54.25H23.5625V44.5625Z" fill="#00E1F0"/>
<path d="M53.4688 5.32812H8.15625C6.95449 5.32812 5.80195 5.83845 4.95217 6.74683C4.1024 7.65521 3.625 8.88723 3.625 10.1719V14.0469C3.625 14.5607 3.81596 15.0535 4.15587 15.4169C4.49578 15.7802 4.9568 15.9844 5.4375 15.9844C5.9182 15.9844 6.37922 15.7802 6.71913 15.4169C7.05904 15.0535 7.25 14.5607 7.25 14.0469V10.1719C7.25 9.91495 7.34548 9.66854 7.51543 9.48687C7.68539 9.30519 7.9159 9.20312 8.15625 9.20312H53.4688C53.7091 9.20312 53.9396 9.30519 54.1096 9.48687C54.2795 9.66854 54.375 9.91495 54.375 10.1719V41.1719C54.375 41.4288 54.2795 41.6752 54.1096 41.8569C53.9396 42.0386 53.7091 42.1406 53.4688 42.1406H8.15625C7.9159 42.1406 7.68539 42.0386 7.51543 41.8569C7.34548 41.6752 7.25 41.4288 7.25 41.1719V28.5781H14.2825L18.3153 37.1903C18.4704 37.5235 18.7121 37.8019 19.0113 37.9922C19.3105 38.1824 19.6547 38.2766 20.0026 38.2633C20.3506 38.25 20.6876 38.1299 20.9734 37.9173C21.2591 37.7047 21.4816 37.4086 21.6141 37.0644L28.0938 20.0919L30.9303 27.3866C31.0694 27.7432 31.3051 28.0472 31.6071 28.2595C31.9091 28.4718 32.2636 28.5828 32.625 28.5781H40.7812C41.262 28.5781 41.723 28.374 42.0629 28.0106C42.4028 27.6473 42.5938 27.1545 42.5938 26.6406C42.5938 26.1268 42.4028 25.634 42.0629 25.2706C41.723 24.9073 41.262 24.7031 40.7812 24.7031H33.8303L29.7703 14.2697C29.6323 13.9162 29.3994 13.6143 29.101 13.4022C28.8026 13.1901 28.4521 13.0773 28.0938 13.0781C27.7359 13.08 27.3866 13.1951 27.0899 13.4089C26.7931 13.6227 26.5622 13.9256 26.4263 14.2794L19.7744 31.6394L17.0556 25.7688C16.9023 25.4433 16.6662 25.1707 16.3744 24.9822C16.0827 24.7937 15.7471 24.697 15.4062 24.7031H7.25V21.7969C7.25 21.283 7.05904 20.7902 6.71913 20.4269C6.37922 20.0635 5.9182 19.8594 5.4375 19.8594C4.9568 19.8594 4.49578 20.0635 4.15587 20.4269C3.81596 20.7902 3.625 21.283 3.625 21.7969V24.7031H1.8125C1.3318 24.7031 0.870779 24.9073 0.530869 25.2706C0.190959 25.634 0 26.1268 0 26.6406C0 27.1545 0.190959 27.6473 0.530869 28.0106C0.870779 28.374 1.3318 28.5781 1.8125 28.5781H3.625V41.1719C3.625 42.4565 4.1024 43.6885 4.95217 44.5969C5.80195 45.5053 6.95449 46.0156 8.15625 46.0156H21.75V54.7344C21.75 55.2482 21.941 55.741 22.2809 56.1044C22.6208 56.4677 23.0818 56.6719 23.5625 56.6719H44.4062C44.887 56.6719 45.348 56.4677 45.6879 56.1044C46.0278 55.741 46.2188 55.2482 46.2188 54.7344C46.2188 54.2205 46.0278 53.7277 45.6879 53.3644C45.348 53.001 44.887 52.7969 44.4062 52.7969H39.875V46.0156H53.4688C54.6705 46.0156 55.8231 45.5053 56.6728 44.5969C57.5226 43.6885 58 42.4565 58 41.1719V10.1719C58 8.88723 57.5226 7.65521 56.6728 6.74683C55.8231 5.83845 54.6705 5.32812 53.4688 5.32812ZM36.25 52.7969H25.375V46.0156H36.25V52.7969Z" fill="#003CBF"/>
<path d="M51.6562 56.6719C52.6573 56.6719 53.4688 55.8044 53.4688 54.7344C53.4688 53.6643 52.6573 52.7969 51.6562 52.7969C50.6552 52.7969 49.8438 53.6643 49.8438 54.7344C49.8438 55.8044 50.6552 56.6719 51.6562 56.6719Z" fill="#00E1F0"/>
</g>
<defs>
<clipPath id="clip0_7_1829">
<rect width="58" height="62" fill="white"/>
</clipPath>
</defs>
</svg>
