<svg width="67" height="63" viewBox="0 0 67 63" fill="none" xmlns="http://www.w3.org/2000/svg">
<g clip-path="url(#clip0_7_1760)">
<path d="M7.32812 23.625H59.6719V61.0312H7.32812V23.625Z" fill="#E3FCFD"/>
<path d="M24.0781 41.3438H42.9219V61.0312H24.0781V41.3438Z" fill="#00E1F0"/>
<path d="M33.5 33.4688C42.7508 33.4688 50.25 26.4172 50.25 17.7188C50.25 9.02026 42.7508 1.96875 33.5 1.96875C24.2492 1.96875 16.75 9.02026 16.75 17.7188C16.75 26.4172 24.2492 33.4688 33.5 33.4688Z" fill="#00E1F0"/>
<path d="M17.7969 32.4845C17.7969 31.9624 17.5763 31.4616 17.1836 31.0924C16.791 30.7232 16.2584 30.5157 15.7031 30.5157C15.1478 30.5157 14.6153 30.7232 14.2226 31.0924C13.83 31.4616 13.6094 31.9624 13.6094 32.4845V42.3282C13.6094 42.8504 13.83 43.3512 14.2226 43.7204C14.6153 44.0896 15.1478 44.297 15.7031 44.297C16.2584 44.297 16.791 44.0896 17.1836 43.7204C17.5763 43.3512 17.7969 42.8504 17.7969 42.3282V32.4845Z" fill="#003CBF"/>
<path d="M64.9062 59.0626H61.7656V23.6251C61.7656 23.1029 61.545 22.6022 61.1524 22.233C60.7597 21.8638 60.2272 21.6564 59.6719 21.6563H55.4844C54.9291 21.6563 54.3965 21.8638 54.0039 22.233C53.6112 22.6022 53.3906 23.1029 53.3906 23.6251C53.3906 24.1472 53.6112 24.648 54.0039 25.0172C54.3965 25.3864 54.9291 25.5938 55.4844 25.5938H57.5781V59.0626H45.0156V41.3438C45.0156 40.8217 44.795 40.321 44.4024 39.9517C44.0097 39.5825 43.4772 39.3751 42.9219 39.3751H24.0781C23.5228 39.3751 22.9903 39.5825 22.5977 39.9517C22.205 40.321 21.9844 40.8217 21.9844 41.3438V59.0626H9.42188V25.5938H16.6447C18.7992 29.6585 22.5238 32.7956 27.0568 34.3633C31.5898 35.9311 36.5885 35.8111 41.0305 34.0279C45.4726 32.2447 49.0221 28.933 50.9533 24.7703C52.8844 20.6076 53.0511 15.9084 51.4193 11.6339C49.7875 7.35937 46.4805 3.83264 42.1747 1.77505C37.869 -0.282543 32.8899 -0.715498 28.2559 0.564744C23.6218 1.84499 19.6831 4.74167 17.2454 8.6623C14.8076 12.5829 14.055 17.2312 15.1415 21.6563H7.32812C6.77284 21.6564 6.2403 21.8638 5.84765 22.233C5.455 22.6022 5.2344 23.1029 5.23438 23.6251V59.0626H2.09375C1.53845 59.0626 1.0059 59.27 0.613245 59.6392C0.220591 60.0084 0 60.5092 0 61.0313C0 61.5535 0.220591 62.0542 0.613245 62.4235C1.0059 62.7927 1.53845 63.0001 2.09375 63.0001H64.9062C65.4615 63.0001 65.9941 62.7927 66.3868 62.4235C66.7794 62.0542 67 61.5535 67 61.0313C67 60.5092 66.7794 60.0084 66.3868 59.6392C65.9941 59.27 65.4615 59.0626 64.9062 59.0626ZM33.5 3.93758C36.3987 3.93758 39.2324 4.74584 41.6426 6.26014C44.0528 7.77445 45.9313 9.92678 47.0406 12.445C48.1499 14.9632 48.4402 17.7341 47.8746 20.4074C47.3091 23.0807 45.9132 25.5363 43.8635 27.4636C41.8138 29.391 39.2023 30.7035 36.3593 31.2353C33.5163 31.767 30.5694 31.4941 27.8913 30.451C25.2132 29.408 22.9242 27.6416 21.3138 25.3753C19.7033 23.109 18.8438 20.4445 18.8438 17.7188C18.8481 14.0651 20.3936 10.5621 23.1413 7.97854C25.8889 5.39494 29.6143 3.94168 33.5 3.93758ZM26.1719 59.0626V43.3126H40.8281V59.0626H26.1719Z" fill="#003CBF"/>
<path d="M27.2188 19.6876H31.4062V23.6251C31.4062 24.1473 31.6268 24.648 32.0195 25.0172C32.4121 25.3864 32.9447 25.5939 33.5 25.5939C34.0553 25.5939 34.5879 25.3864 34.9805 25.0172C35.3732 24.648 35.5938 24.1473 35.5938 23.6251V19.6876H39.7812C40.3365 19.6876 40.8691 19.4802 41.2618 19.111C41.6544 18.7418 41.875 18.241 41.875 17.7189C41.875 17.1967 41.6544 16.696 41.2618 16.3268C40.8691 15.9575 40.3365 15.7501 39.7812 15.7501H35.5938V11.8126C35.5938 11.2905 35.3732 10.7897 34.9805 10.4205C34.5879 10.0513 34.0553 9.84387 33.5 9.84387C32.9447 9.84387 32.4121 10.0513 32.0195 10.4205C31.6268 10.7897 31.4062 11.2905 31.4062 11.8126V15.7501H27.2188C26.6635 15.7501 26.1309 15.9575 25.7382 16.3268C25.3456 16.696 25.125 17.1967 25.125 17.7189C25.125 18.241 25.3456 18.7418 25.7382 19.111C26.1309 19.4802 26.6635 19.6876 27.2188 19.6876Z" fill="#003CBF"/>
<path d="M15.7031 52.1719C16.8595 52.1719 17.7969 51.2904 17.7969 50.2031C17.7969 49.1158 16.8595 48.2344 15.7031 48.2344C14.5468 48.2344 13.6094 49.1158 13.6094 50.2031C13.6094 51.2904 14.5468 52.1719 15.7031 52.1719Z" fill="#00E1F0"/>
</g>
<defs>
<clipPath id="clip0_7_1760">
<rect width="67" height="63" fill="white"/>
</clipPath>
</defs>
</svg>
