<svg width="78" height="76" viewBox="0 0 78 76" fill="none" xmlns="http://www.w3.org/2000/svg">
<path d="M47.5312 42.75L42.6562 47.5L39 42.75L43.875 41.5625L47.5312 42.6075V42.75Z" fill="white"/>
<path d="M39 42.75L35.3438 47.5L30.4688 42.75V42.6075L34.125 41.5625L39 42.75Z" fill="white"/>
<path d="M35.3438 47.5L36.5625 49.875L34.125 74.8125H30.4688V53.4375V42.75L35.3438 47.5Z" fill="white"/>
<path d="M47.5312 53.4375V74.8125H43.875L41.4375 49.875L42.6562 47.5L47.5312 42.75V53.4375Z" fill="white"/>
<path d="M39 42.75L42.6562 47.5L41.4375 49.875H36.5625L35.3438 47.5L39 42.75Z" fill="#0065FF"/>
<path d="M41.4375 49.875L43.875 74.8125H34.125L36.5625 49.875H41.4375Z" fill="#0065FF"/>
<path d="M53.625 58.1875L51.1875 74.8125H47.5312V53.4375L53.625 58.1875Z" fill="#EDF4FA"/>
<path d="M51.1875 43.9375L53.625 51.0625L47.5312 53.4375V42.75V42.6075L51.1875 43.6525V43.9375Z" fill="#EDF4FA"/>
<path d="M30.4688 53.4375V74.8125H26.8125L24.375 58.1875L30.4688 53.4375Z" fill="#EDF4FA"/>
<path d="M30.4688 42.75V53.4375L24.375 51.0625L26.8125 43.9375V43.6525L30.4688 42.6075V42.75Z" fill="#EDF4FA"/>
<path d="M19.5 55.8125V74.8125H9.75L13.1991 49.0319C13.2752 48.4475 13.5756 47.9129 14.04 47.5356L15.8438 49.875L19.5 55.8125Z" fill="#D6E0EB"/>
<path d="M64.8009 49.0319L68.25 74.8125H58.5V55.8125L62.1562 49.875L63.7041 47.3575H63.7162C64.0122 47.5418 64.2629 47.7874 64.4503 48.0768C64.6378 48.3662 64.7575 48.6923 64.8009 49.0319Z" fill="#D6E0EB"/>
<path d="M63.7041 47.3575L62.1562 49.875L58.5 55.8125V74.8125H51.1875L53.625 58.1875L47.5312 53.4375L53.625 51.0625L51.1875 43.9375V43.6525L63.0703 47.0606C63.2957 47.1279 63.5093 47.228 63.7041 47.3575Z" fill="#D6E0EB"/>
<path d="M30.4684 53.4375L24.3746 58.1875L26.8121 74.8125H19.4996V55.8125L15.8434 49.875L14.0396 47.5356C14.2987 47.3182 14.6018 47.1564 14.9293 47.0606L26.8121 43.6525V43.9375L24.3746 51.0625L30.4684 53.4375Z" fill="#D6E0EB"/>
<path d="M53.625 10.6875V22.5625C53.6231 21.9332 53.3656 21.3302 52.9089 20.8852C52.4522 20.4402 51.8334 20.1894 51.1875 20.1875H49.9688V15.4375C47.5312 15.4375 45.0938 10.6875 45.0938 10.6875V4.75C45.0938 4.43506 45.2222 4.13301 45.4507 3.91031C45.6793 3.68761 45.9893 3.5625 46.3125 3.5625C48.251 3.56533 50.1093 4.3169 51.48 5.65249C52.8507 6.98807 53.6221 8.7987 53.625 10.6875Z" fill="#784132"/>
<path d="M28.0312 15.4375V20.1875H26.8125C26.1666 20.1894 25.5478 20.4402 25.0911 20.8852C24.6344 21.3302 24.3769 21.9332 24.375 22.5625V13.0625C24.375 9.91305 25.659 6.8926 27.9446 4.66561C30.2302 2.43861 33.3302 1.1875 36.5625 1.1875H41.4375C42.4072 1.1875 43.3372 1.56283 44.0229 2.23093C44.7085 2.89903 45.0938 3.80517 45.0938 4.75V10.6875C45.0938 10.6875 36.5625 15.4375 28.0312 15.4375Z" fill="#784132"/>
<path d="M44.4844 23.75C44.8209 23.75 45.0938 22.9525 45.0938 21.9688C45.0938 20.985 44.8209 20.1875 44.4844 20.1875C44.1478 20.1875 43.875 20.985 43.875 21.9688C43.875 22.9525 44.1478 23.75 44.4844 23.75Z" fill="#F4BAA6"/>
<path d="M33.5156 23.75C33.8522 23.75 34.125 22.9525 34.125 21.9688C34.125 20.985 33.8522 20.1875 33.5156 20.1875C33.1791 20.1875 32.9062 20.985 32.9062 21.9688C32.9062 22.9525 33.1791 23.75 33.5156 23.75Z" fill="#F4BAA6"/>
<path d="M28.0312 20.1875L30.4687 24.9375L28.0312 28.5L26.0081 27.1819C25.5051 26.8572 25.0927 26.4161 24.8076 25.898C24.5226 25.3799 24.374 24.801 24.3749 24.2131V22.5625C24.3769 21.9332 24.6343 21.3302 25.091 20.8852C25.5477 20.4402 26.1666 20.1894 26.8124 20.1875H28.0312Z" fill="#F4BAA6"/>
<path d="M53.625 22.5625V24.2131C53.626 24.801 53.4773 25.3799 53.1923 25.898C52.9073 26.4161 52.4948 26.8572 51.9919 27.1819L49.9687 28.5L47.5312 24.9375L49.9687 20.1875H51.1875C51.8334 20.1894 52.4522 20.4402 52.9089 20.8852C53.3656 21.3302 53.6231 21.9332 53.625 22.5625Z" fill="#F4BAA6"/>
<path d="M44.4844 23.75C44.8256 23.75 45.0938 22.9544 45.0938 21.9688C45.0938 20.9831 44.8256 20.1875 44.4844 20.1875C44.1431 20.1875 43.875 20.9831 43.875 21.9688C43.875 22.9544 44.1431 23.75 44.4844 23.75ZM33.5156 23.75C33.8569 23.75 34.125 22.9544 34.125 21.9688C34.125 20.9831 33.8569 20.1875 33.5156 20.1875C33.1744 20.1875 32.9062 20.9831 32.9062 21.9688C32.9062 22.9544 33.1744 23.75 33.5156 23.75ZM28.0312 15.4375C36.5625 15.4375 45.0938 10.6875 45.0938 10.6875C45.0938 10.6875 47.5312 15.4375 49.9688 15.4375V20.1875L47.5312 24.9375H30.4688L28.0312 20.1875V15.4375Z" fill="#F4BAA6"/>
<path d="M43.875 35.72C42.3558 36.4389 40.6889 36.8125 39 36.8125C37.3111 36.8125 35.6442 36.4389 34.125 35.72C32.6166 35.0417 31.285 34.04 30.2297 32.7898C29.1745 31.5395 28.423 30.0731 28.0312 28.5L30.4688 24.9375H47.5312L49.9688 28.5C49.577 30.0731 48.8255 31.5395 47.7703 32.7898C46.715 34.04 45.3834 35.0417 43.875 35.72Z" fill="#EDF4FA"/>
<path d="M34.125 35.72V41.5625L39 42.75L43.875 41.5625V35.72C42.3558 36.4389 40.6889 36.8124 39 36.8124C37.3111 36.8124 35.6442 36.4389 34.125 35.72Z" fill="#D68975"/>
<path d="M43.875 35.72C42.3558 36.4389 40.6889 36.8124 39 36.8124C37.3111 36.8124 35.6442 36.4389 34.125 35.72V40.0187L43.875 37.1687V35.72Z" fill="#C96C55"/>
<path d="M49.9688 26.125V21.375H51.1875C51.5107 21.375 51.8207 21.5001 52.0493 21.7228C52.2778 21.9455 52.4062 22.2476 52.4062 22.5625V23.4697C52.4062 23.9109 52.2801 24.3433 52.042 24.7186C51.804 25.0938 51.4633 25.397 51.0583 25.5942L49.9688 26.125Z" fill="#D68975"/>
<path d="M28.0312 26.125V21.375H26.8125C26.4893 21.375 26.1793 21.5001 25.9507 21.7228C25.7222 21.9455 25.5938 22.2476 25.5938 22.5625V23.4697C25.5938 23.9109 25.7199 24.3433 25.958 24.7186C26.196 25.0938 26.5367 25.397 26.9417 25.5942L28.0312 26.125Z" fill="#D68975"/>
<path d="M31.6875 28.5L34.125 24.9375H30.4688L28.0312 28.5C28.423 30.0731 29.1745 31.5395 30.2297 32.7898C31.285 34.04 32.6166 35.0417 34.125 35.72C36.1998 36.7204 38.5495 37.0455 40.8281 36.6474C39.7723 36.4813 38.7464 36.169 37.7812 35.72C36.2728 35.0417 34.9412 34.04 33.886 32.7898C32.8308 31.5395 32.0792 30.0731 31.6875 28.5Z" fill="#D6E0EB"/>
<path d="M44.4844 24.9375C45.1575 24.9375 45.7031 23.6083 45.7031 21.9688C45.7031 20.3292 45.1575 19 44.4844 19C43.8113 19 43.2656 20.3292 43.2656 21.9688C43.2656 23.6083 43.8113 24.9375 44.4844 24.9375Z" fill="#3D240F"/>
<path d="M33.5156 24.9375C34.1887 24.9375 34.7344 23.6083 34.7344 21.9688C34.7344 20.3292 34.1887 19 33.5156 19C32.8425 19 32.2969 20.3292 32.2969 21.9688C32.2969 23.6083 32.8425 24.9375 33.5156 24.9375Z" fill="#3D240F"/>
<path d="M39.0003 23.1562C38.4336 23.1562 37.9607 23.9151 37.8242 24.9375H40.1764C40.0399 23.9151 39.567 23.1562 39.0003 23.1562Z" fill="#D9896D"/>
<path d="M45.0938 10.6875C45.0938 10.6875 36.5625 15.4375 28.0312 15.4375V17.8125C36.5625 17.8125 45.0938 13.0625 45.0938 13.0625C45.0938 13.0625 47.5312 17.8125 49.9688 17.8125V15.4375C47.5312 15.4375 45.0938 10.6875 45.0938 10.6875Z" fill="#D68975"/>
<path d="M34.8626 17.7971C34.8794 17.8022 34.8965 17.8061 34.9138 17.809C35.1576 17.8517 35.344 17.4741 35.344 17.2152C35.344 17.1428 35.316 15.434 32.9065 15.434C30.4971 15.434 30.469 17.1428 30.469 17.2152C30.4655 17.3195 30.4887 17.423 30.5366 17.5163C30.5845 17.6096 30.6555 17.6898 30.7433 17.7496C30.92 17.8553 31.093 17.7567 31.2308 17.5952C31.2978 17.5145 31.3526 17.4147 31.4221 17.3387C31.4935 17.27 31.5758 17.2131 31.6659 17.1701C31.8794 17.0484 32.1052 16.9485 32.3398 16.872C32.6511 16.7852 32.9796 16.7752 33.2958 16.843C33.6119 16.9108 33.9058 17.0542 34.1509 17.2603C34.354 17.4785 34.5949 17.6602 34.8626 17.7971Z" fill="#3D240F"/>
<path d="M43.1436 17.7971C43.1268 17.8022 43.1097 17.8061 43.0924 17.809C42.8486 17.8517 42.6622 17.4741 42.6622 17.2152C42.6622 17.1428 42.6902 15.434 45.0997 15.434C47.5092 15.434 47.5372 17.1428 47.5372 17.2152C47.5407 17.3195 47.5175 17.423 47.4696 17.5163C47.4217 17.6096 47.3507 17.6898 47.263 17.7496C47.0862 17.8553 46.9132 17.7567 46.7755 17.5952C46.7084 17.5145 46.6536 17.4147 46.5841 17.3387C46.5128 17.27 46.4304 17.2131 46.3404 17.1701C46.1269 17.0484 45.901 16.9485 45.6664 16.872C45.3552 16.7852 45.0266 16.7752 44.7105 16.843C44.3943 16.9108 44.1004 17.0542 43.8553 17.2603C43.6522 17.4785 43.4113 17.6602 43.1436 17.7971Z" fill="#3D240F"/>
<path d="M49.424 19.9215L47.1547 24.3438H30.8453L28.576 19.9215C28.5254 19.823 28.4476 19.7402 28.3514 19.6823C28.2552 19.6244 28.1443 19.5938 28.0312 19.5938V21.5139L29.924 25.2035C29.9746 25.302 30.0524 25.3848 30.1486 25.4427C30.2448 25.5006 30.3557 25.5312 30.4688 25.5312H47.5312C47.6443 25.5312 47.7552 25.5006 47.8514 25.4427C47.9476 25.3848 48.0254 25.302 48.076 25.2035L49.9688 21.5139V19.5938C49.8557 19.5938 49.7448 19.6244 49.6486 19.6823C49.5524 19.7402 49.4746 19.823 49.424 19.9215Z" fill="#8394B2"/>
<path d="M51.48 5.65253C50.8039 4.98776 49.9988 4.46063 49.1117 4.10183C48.2246 3.74302 47.273 3.5597 46.3125 3.56253C45.9893 3.56253 45.6793 3.68764 45.4507 3.91034C45.2222 4.13304 45.0938 4.43509 45.0938 4.75003V10.6875C45.0938 10.6875 47.5313 15.4375 49.9688 15.4375V19.5938H51.1875C51.3491 19.5938 51.5041 19.6563 51.6184 19.7677C51.7327 19.879 51.7969 20.0301 51.7969 20.1875C51.7937 20.2145 51.788 20.2411 51.7798 20.2671C52.3055 20.3954 52.7723 20.6907 53.1065 21.1065C53.4406 21.5222 53.6231 22.0345 53.625 22.5625V10.6875C53.6279 9.75163 53.4398 8.82451 53.0715 7.96012C52.7033 7.09572 52.1623 6.31132 51.48 5.65253Z" fill="#784132"/>
<path d="M42.6562 8.113V3.5625C42.6562 2.93261 42.3994 2.32852 41.9423 1.88312C41.4852 1.43772 40.8652 1.1875 40.2188 1.1875H36.5625C33.3302 1.1875 30.2302 2.43861 27.9446 4.66561C25.659 6.8926 24.375 9.91305 24.375 13.0625C33.7594 13.0625 38.9683 11.3157 41.2449 10.2683C41.666 10.0768 42.0224 9.77235 42.2723 9.39065C42.5222 9.00895 42.6554 8.56577 42.6562 8.113Z" fill="#8A4B39"/>
<path d="M25.5938 17.8125V20.5188C25.9624 20.3045 26.3832 20.1901 26.8125 20.1875H28.0312V15.4375C27.3848 15.4375 26.7648 15.6877 26.3077 16.1331C25.8506 16.5785 25.5938 17.1826 25.5938 17.8125Z" fill="#4C2C21"/>
<path d="M49.9688 15.4375V19.5938H51.1875C51.3491 19.5938 51.5041 19.6563 51.6184 19.7677C51.7327 19.879 51.7969 20.03 51.7969 20.1875C51.7937 20.2145 51.7879 20.2411 51.7798 20.2671C51.9998 20.3239 52.2107 20.4102 52.4062 20.5236V17.8125C52.4062 17.1826 52.1494 16.5785 51.6923 16.1331C51.2352 15.6877 50.6152 15.4375 49.9688 15.4375Z" fill="#241510"/>
<path d="M47.5312 8.32912V3.66937C47.1288 3.60057 46.7211 3.56482 46.3125 3.5625C45.9893 3.5625 45.6793 3.68761 45.4507 3.91031C45.2222 4.13301 45.0938 4.43506 45.0938 4.75V10.6875C45.0938 10.6875 47.5312 15.4375 49.9688 15.4375C51.3094 15.4375 52.4062 17.6878 52.4062 19V20.5236C52.7749 20.7297 53.0814 21.0265 53.2953 21.3843C53.5092 21.7421 53.6229 22.1484 53.625 22.5625V14.25C53.352 14.25 53.09 14.2393 52.8389 14.2179C51.3617 14.0538 49.9999 13.36 49.0188 12.2715C48.0377 11.1829 47.5075 9.77764 47.5312 8.32912Z" fill="#613529"/>
<path d="M15.8438 49.875L14.04 47.5356C13.5756 47.9129 13.2752 48.4475 13.1991 49.0319L13.0772 49.9819L16.4531 54.916C16.8518 55.5016 17.0639 56.1891 17.0625 56.892V68.875C17.0646 69.6516 16.8055 70.4075 16.325 71.0271C15.8444 71.6466 15.1688 72.0958 14.4015 72.3059C13.6342 72.516 12.8174 72.4754 12.076 72.1903C11.3346 71.9053 10.7094 71.3915 10.296 70.7275L9.75 74.8125H19.5V55.8125L15.8438 49.875Z" fill="#CCD6E0"/>
<path d="M64.5938 72.4375C63.6241 72.4375 62.6941 72.0622 62.0084 71.3941C61.3227 70.726 60.9375 69.8198 60.9375 68.875V56.5321C60.9374 56.063 61.0799 55.6043 61.347 55.214L64.9277 49.9807L64.8058 49.0307C64.7624 48.6911 64.6427 48.365 64.4552 48.0756C64.2677 47.7862 64.0171 47.5406 63.7211 47.3563H63.7089L62.1562 49.875L58.5 55.8125V74.8125H68.25L67.704 70.7275C67.3796 71.2485 66.9231 71.6794 66.3784 71.9789C65.8337 72.2784 65.2192 72.4363 64.5938 72.4375Z" fill="#CCD6E0"/>
<path d="M53.4129 59.6327L51.1875 74.8125H53.625L54.8438 60.5625L53.4129 59.6327Z" fill="white"/>
<path d="M52.9474 44.1572L51.1875 43.6525V43.9375L53.625 51.0625L47.5312 53.4375L49.5154 54.9836L56.0625 52.25L52.9474 44.1572Z" fill="white"/>
<path d="M24.375 74.8125H26.8125L24.5871 59.6327L23.1562 60.5625L24.375 74.8125Z" fill="white"/>
<path d="M24.375 51.0625L26.8125 43.9375V43.6525L25.0526 44.1572L21.9375 52.25L28.4846 54.9836L30.4688 53.4375L24.375 51.0625Z" fill="white"/>
<path d="M36.075 48.925L35.3438 47.5L30.4688 42.75V45.125L35.3438 49.875L36.075 48.925Z" fill="#8394B2"/>
<path d="M41.9248 48.925L42.6561 49.875L47.5311 45.125V42.75L42.6561 47.5L41.9248 48.925Z" fill="#8394B2"/>
<path d="M36.075 48.925L39 45.125L41.925 48.925L42.6562 47.5L39 42.75L35.3438 47.5L36.075 48.925Z" fill="#0F3D91"/>
<path d="M40.0969 52.25H41.6691L41.4375 49.875H36.5625L34.125 74.8125H36.5625L37.6594 54.5063C37.6907 53.8972 37.9612 53.3232 38.415 52.9031C38.8688 52.4831 39.471 52.2492 40.0969 52.25Z" fill="#0F3D91"/>
<path d="M45.2156 64.125L46.3125 74.8125H42.6562L41.4375 64.125H45.2156Z" fill="#2B2B37"/>
<path d="M45.2156 64.125L45.0938 62.9375H62.1562L63.375 74.8125H46.3125L45.2156 64.125Z" fill="#0065FF"/>
<path d="M58.5 68.875H64.5938V74.8125H56.0625V71.25C56.0625 70.6201 56.3193 70.016 56.7764 69.5706C57.2335 69.1252 57.8535 68.875 58.5 68.875Z" fill="#F4BAA6"/>
<path d="M46.3129 74.8125L45.216 64.125H44.0277L44.7516 69.768C44.794 70.098 44.7648 70.4329 44.666 70.7512C44.5671 71.0695 44.4007 71.364 44.1776 71.6156C43.9544 71.8673 43.6796 72.0705 43.3708 72.212C43.0619 72.3536 42.726 72.4304 42.3848 72.4375L42.6566 74.8125H46.3129Z" fill="#222430"/>
<path d="M57.6188 70.0625H57.2812C56.958 70.0625 56.648 70.1876 56.4195 70.4103C56.1909 70.633 56.0625 70.9351 56.0625 71.25C56.0625 71.5649 55.9341 71.867 55.7055 72.0897C55.477 72.3124 55.167 72.4375 54.8437 72.4375H50.9023C50.3081 72.4376 49.7343 72.2263 49.2888 71.8431C48.8433 71.46 48.5568 70.9315 48.4831 70.357L47.5312 62.9375H45.0938L45.2156 64.125L46.3125 74.8125H57.2812V71.25C57.2838 70.832 57.4003 70.4222 57.6188 70.0625Z" fill="#003CBF"/>
<path d="M62.1562 73.625H59.7188C59.3955 73.625 59.0855 73.4999 58.857 73.2772C58.6284 73.0545 58.5 72.7524 58.5 72.4375V70.0625C58.5 69.7476 58.6284 69.4455 58.857 69.2228C59.0855 69.0001 59.3955 68.875 59.7188 68.875H58.5C57.8535 68.875 57.2335 69.1252 56.7764 69.5706C56.3193 70.016 56.0625 70.6201 56.0625 71.25V74.8125H64.5938V71.25C64.5938 71.8799 64.3369 72.484 63.8798 72.9294C63.4227 73.3748 62.8027 73.625 62.1562 73.625Z" fill="#D68975"/>
</svg>
