<svg width="367" height="433" viewBox="0 0 367 433" fill="none" xmlns="http://www.w3.org/2000/svg">
<path d="M223.641 243.562L200.703 270.625L183.5 243.562L206.438 236.797L223.641 242.751V243.562Z" fill="white"/>
<path d="M183.5 243.562L166.297 270.625L143.359 243.562V242.751L160.562 236.797L183.5 243.562Z" fill="white"/>
<path d="M166.297 270.625L172.031 284.156L160.562 426.234H143.359V304.453V243.562L166.297 270.625Z" fill="white"/>
<path d="M223.641 304.453V426.234H206.438L194.969 284.156L200.703 270.625L223.641 243.562V304.453Z" fill="white"/>
<path d="M183.5 243.562L200.703 270.625L194.969 284.156H172.031L166.297 270.625L183.5 243.562Z" fill="#0065FF"/>
<path d="M194.969 284.156L206.438 426.234H160.562L172.031 284.156H194.969Z" fill="#0065FF"/>
<path d="M252.312 331.516L240.844 426.234H223.641V304.453L252.312 331.516Z" fill="#EDF4FA"/>
<path d="M240.844 250.328L252.312 290.922L223.641 304.453V243.562V242.751L240.844 248.704V250.328Z" fill="#EDF4FA"/>
<path d="M143.359 304.453V426.234H126.156L114.688 331.516L143.359 304.453Z" fill="#EDF4FA"/>
<path d="M143.359 243.562V304.453L114.688 290.922L126.156 250.328V248.704L143.359 242.751V243.562Z" fill="#EDF4FA"/>
<path d="M91.75 317.984V426.234H45.875L62.1033 279.353C62.4613 276.023 63.8751 272.977 66.06 270.828L74.5469 284.156L91.75 317.984Z" fill="#D6E0EB"/>
<path d="M304.897 279.353L321.125 426.234H275.25V317.984L292.453 284.156L299.736 269.813H299.793C301.186 270.863 302.365 272.262 303.247 273.911C304.129 275.56 304.692 277.418 304.897 279.353Z" fill="#D6E0EB"/>
<path d="M299.736 269.813L292.453 284.156L275.25 317.984V426.234H240.844L252.312 331.516L223.641 304.453L252.312 290.922L240.844 250.328V248.704L296.754 268.122C297.814 268.505 298.82 269.075 299.736 269.813Z" fill="#D6E0EB"/>
<path d="M143.357 304.453L114.686 331.516L126.154 426.234H91.7481V317.984L74.545 284.156L66.0581 270.828C67.2772 269.589 68.7034 268.667 70.2442 268.122L126.154 248.704V250.328L114.686 290.922L143.357 304.453Z" fill="#D6E0EB"/>
<path d="M252.312 60.8906V128.547C252.303 124.961 251.092 121.526 248.943 118.991C246.795 116.455 243.883 115.026 240.844 115.016H235.109V87.9531C223.641 87.9531 212.172 60.8906 212.172 60.8906V27.0625C212.172 25.2681 212.776 23.5473 213.851 22.2785C214.927 21.0097 216.385 20.2969 217.906 20.2969C227.027 20.313 235.771 24.595 242.22 32.2043C248.67 39.8136 252.299 50.1294 252.312 60.8906Z" fill="#784132"/>
<path d="M131.891 87.9531V115.016H126.156C123.117 115.026 120.205 116.455 118.057 118.991C115.908 121.526 114.697 124.961 114.688 128.547V74.4219C114.688 56.4783 120.729 39.2697 131.483 26.5817C142.237 13.8937 156.823 6.76563 172.031 6.76562H194.969C199.531 6.76563 203.907 8.90404 207.133 12.7104C210.359 16.5168 212.172 21.6794 212.172 27.0625V60.8906C212.172 60.8906 172.031 87.9531 131.891 87.9531Z" fill="#784132"/>
<path d="M209.305 135.312C210.888 135.312 212.172 130.769 212.172 125.164C212.172 119.559 210.888 115.016 209.305 115.016C207.721 115.016 206.438 119.559 206.438 125.164C206.438 130.769 207.721 135.312 209.305 135.312Z" fill="#F4BAA6"/>
<path d="M157.695 135.312C159.279 135.312 160.562 130.769 160.562 125.164C160.562 119.559 159.279 115.016 157.695 115.016C156.112 115.016 154.828 119.559 154.828 125.164C154.828 130.769 156.112 135.312 157.695 135.312Z" fill="#F4BAA6"/>
<path d="M131.89 115.016L143.359 142.078L131.89 162.375L122.371 154.865C120.005 153.015 118.064 150.502 116.723 147.55C115.382 144.598 114.683 141.3 114.687 137.951V128.547C114.696 124.961 115.908 121.526 118.056 118.991C120.205 116.455 123.117 115.026 126.156 115.016H131.89Z" fill="#F4BAA6"/>
<path d="M252.312 128.547V137.951C252.317 141.3 251.618 144.598 250.277 147.55C248.936 150.502 246.995 153.015 244.628 154.865L235.109 162.375L223.641 142.078L235.109 115.016H240.844C243.883 115.026 246.795 116.455 248.943 118.991C251.092 121.526 252.303 124.961 252.312 128.547Z" fill="#F4BAA6"/>
<path d="M209.305 135.312C210.91 135.312 212.172 130.78 212.172 125.164C212.172 119.549 210.91 115.016 209.305 115.016C207.699 115.016 206.438 119.549 206.438 125.164C206.438 130.78 207.699 135.312 209.305 135.312ZM157.695 135.312C159.301 135.312 160.562 130.78 160.562 125.164C160.562 119.549 159.301 115.016 157.695 115.016C156.09 115.016 154.828 119.549 154.828 125.164C154.828 130.78 156.09 135.312 157.695 135.312ZM131.891 87.9531C172.031 87.9531 212.172 60.8906 212.172 60.8906C212.172 60.8906 223.641 87.9531 235.109 87.9531V115.016L223.641 142.078H143.359L131.891 115.016V87.9531Z" fill="#F4BAA6"/>
<path d="M206.438 203.51C199.289 207.606 191.447 209.734 183.5 209.734C175.553 209.734 167.711 207.606 160.562 203.51C153.465 199.646 147.2 193.939 142.235 186.816C137.27 179.692 133.734 171.337 131.891 162.375L143.359 142.078H223.641L235.109 162.375C233.266 171.337 229.73 179.692 224.765 186.816C219.8 193.939 213.535 199.646 206.438 203.51Z" fill="#EDF4FA"/>
<path d="M160.562 203.51V236.797L183.5 243.562L206.438 236.797V203.51C199.289 207.606 191.447 209.734 183.5 209.734C175.553 209.734 167.711 207.606 160.562 203.51Z" fill="#D68975"/>
<path d="M206.438 203.51C199.289 207.606 191.447 209.734 183.5 209.734C175.553 209.734 167.711 207.606 160.562 203.51V228.001L206.438 211.764V203.51Z" fill="#C96C55"/>
<path d="M235.109 148.844V121.781H240.844C242.365 121.781 243.823 122.494 244.899 123.763C245.974 125.032 246.578 126.753 246.578 128.547V133.716C246.578 136.229 245.985 138.693 244.864 140.831C243.744 142.969 242.142 144.696 240.236 145.82L235.109 148.844Z" fill="#D68975"/>
<path d="M131.891 148.844V121.781H126.156C124.635 121.781 123.177 122.494 122.101 123.763C121.026 125.032 120.422 126.753 120.422 128.547V133.716C120.422 136.229 121.015 138.693 122.136 140.831C123.256 142.969 124.858 144.696 126.764 145.82L131.891 148.844Z" fill="#D68975"/>
<path d="M149.094 162.375L160.562 142.078H143.359L131.891 162.375C133.734 171.337 137.27 179.692 142.235 186.816C147.2 193.939 153.465 199.646 160.562 203.51C170.325 209.21 181.38 211.062 192.102 208.794C187.134 207.847 182.307 206.068 177.766 203.51C170.668 199.646 164.403 193.939 159.438 186.816C154.473 179.692 150.937 171.337 149.094 162.375Z" fill="#D6E0EB"/>
<path d="M209.305 142.078C212.472 142.078 215.039 134.505 215.039 125.164C215.039 115.823 212.472 108.25 209.305 108.25C206.138 108.25 203.57 115.823 203.57 125.164C203.57 134.505 206.138 142.078 209.305 142.078Z" fill="#3D240F"/>
<path d="M157.695 142.078C160.862 142.078 163.43 134.505 163.43 125.164C163.43 115.823 160.862 108.25 157.695 108.25C154.528 108.25 151.961 115.823 151.961 125.164C151.961 134.505 154.528 142.078 157.695 142.078Z" fill="#3D240F"/>
<path d="M183.502 131.93C180.835 131.93 178.61 136.253 177.968 142.078H189.035C188.393 136.253 186.168 131.93 183.502 131.93Z" fill="#D9896D"/>
<path d="M212.172 60.8906C212.172 60.8906 172.031 87.9531 131.891 87.9531V101.484C172.031 101.484 212.172 74.4219 212.172 74.4219C212.172 74.4219 223.641 101.484 235.109 101.484V87.9531C223.641 87.9531 212.172 60.8906 212.172 60.8906Z" fill="#D68975"/>
<path d="M164.033 101.396C164.112 101.425 164.193 101.448 164.274 101.464C165.421 101.707 166.298 99.556 166.298 98.0811C166.298 97.6684 166.166 87.9327 154.83 87.9327C143.493 87.9327 143.361 97.6684 143.361 98.0811C143.344 98.6752 143.453 99.2647 143.679 99.7964C143.904 100.328 144.238 100.785 144.651 101.126C145.482 101.728 146.297 101.166 146.945 100.246C147.26 99.7861 147.518 99.2177 147.845 98.7847C148.181 98.3934 148.568 98.069 148.992 97.824C149.997 97.1305 151.059 96.5614 152.163 96.1259C153.627 95.6311 155.173 95.5742 156.661 95.9605C158.149 96.3467 159.531 97.1639 160.684 98.3382C161.64 99.5812 162.774 100.616 164.033 101.396Z" fill="#3D240F"/>
<path d="M202.996 101.396C202.917 101.425 202.837 101.448 202.755 101.464C201.608 101.707 200.731 99.556 200.731 98.0811C200.731 97.6684 200.863 87.9327 212.2 87.9327C223.537 87.9327 223.669 97.6684 223.669 98.0811C223.685 98.6752 223.576 99.2647 223.35 99.7964C223.125 100.328 222.791 100.785 222.378 101.126C221.547 101.728 220.733 101.166 220.085 100.246C219.769 99.7861 219.511 99.2177 219.184 98.7847C218.848 98.3934 218.461 98.069 218.037 97.824C217.033 97.1305 215.97 96.5614 214.866 96.1259C213.402 95.6311 211.856 95.5742 210.368 95.9605C208.881 96.3467 207.498 97.1639 206.345 98.3382C205.389 99.5812 204.256 100.616 202.996 101.396Z" fill="#3D240F"/>
<path d="M232.546 113.5L221.869 138.695H145.131L134.454 113.5C134.216 112.939 133.85 112.467 133.397 112.137C132.944 111.808 132.423 111.633 131.891 111.633V122.573L140.796 143.594C141.034 144.155 141.4 144.627 141.853 144.956C142.306 145.286 142.827 145.461 143.359 145.461H223.641C224.173 145.461 224.694 145.286 225.147 144.956C225.6 144.627 225.966 144.155 226.204 143.594L235.109 122.573V111.633C234.577 111.633 234.056 111.808 233.603 112.137C233.15 112.467 232.784 112.939 232.546 113.5Z" fill="#8394B2"/>
<path d="M242.22 32.2043C239.039 28.4169 235.251 25.4136 231.077 23.3694C226.903 21.3251 222.426 20.2807 217.906 20.2968C216.385 20.2968 214.927 21.0096 213.851 22.2784C212.776 23.5472 212.172 25.2681 212.172 27.0624V60.8906C212.172 60.8906 223.641 87.9531 235.109 87.9531V111.633H240.844C241.604 111.633 242.333 111.989 242.871 112.624C243.409 113.258 243.711 114.118 243.711 115.016C243.696 115.169 243.669 115.321 243.631 115.469C246.104 116.2 248.301 117.883 249.873 120.251C251.445 122.619 252.304 125.538 252.313 128.547V60.8906C252.326 55.5584 251.441 50.2763 249.708 45.3515C247.976 40.4267 245.43 35.9576 242.22 32.2043Z" fill="#784132"/>
<path d="M200.703 46.2227V20.2969C200.703 16.7082 199.495 13.2664 197.344 10.7288C195.193 8.19123 192.276 6.76563 189.234 6.76562H172.031C156.823 6.76563 142.237 13.8937 131.483 26.5817C120.729 39.2697 114.688 56.4783 114.688 74.4219C158.842 74.4219 183.351 64.4696 194.063 58.5024C196.044 57.4111 197.721 55.6767 198.897 53.502C200.073 51.3273 200.699 48.8024 200.703 46.2227Z" fill="#8A4B39"/>
<path d="M120.422 101.484V116.903C122.156 115.682 124.136 115.03 126.156 115.016H131.891V87.9531C128.849 87.9531 125.932 89.3787 123.781 91.9163C121.63 94.4539 120.422 97.8957 120.422 101.484Z" fill="#4C2C21"/>
<path d="M235.109 87.9531V111.633H240.844C241.604 111.633 242.333 111.989 242.871 112.624C243.409 113.258 243.711 114.118 243.711 115.016C243.696 115.169 243.669 115.321 243.631 115.469C244.666 115.792 245.658 116.284 246.578 116.93V101.484C246.578 97.8957 245.37 94.4539 243.219 91.9163C241.068 89.3787 238.151 87.9531 235.109 87.9531Z" fill="#241510"/>
<path d="M223.641 47.4541V20.9058C221.747 20.5138 219.829 20.3101 217.906 20.2969C216.385 20.2969 214.927 21.0097 213.851 22.2785C212.776 23.5473 212.172 25.2681 212.172 27.0625V60.8906C212.172 60.8906 223.641 87.9531 235.109 87.9531C241.417 87.9531 246.578 100.774 246.578 108.25V116.93C248.312 118.105 249.755 119.796 250.761 121.834C251.768 123.873 252.303 126.188 252.312 128.547V81.1875C251.028 81.1875 249.795 81.1266 248.614 81.0048C241.663 80.0699 235.256 76.1168 230.64 69.9151C226.024 63.7134 223.529 55.7068 223.641 47.4541Z" fill="#613529"/>
<path d="M74.5469 284.156L66.06 270.828C63.8751 272.977 62.4613 276.023 62.1033 279.353L61.5298 284.765L77.4141 312.876C79.2901 316.213 80.2877 320.13 80.2812 324.134V392.406C80.2909 396.831 79.0721 401.137 76.8111 404.667C74.5501 408.197 71.3713 410.756 67.761 411.953C64.1506 413.15 60.3074 412.919 56.819 411.295C53.3305 409.671 50.3889 406.744 48.444 402.961L45.875 426.234H91.75V317.984L74.5469 284.156Z" fill="#CCD6E0"/>
<path d="M303.922 412.703C299.359 412.703 294.984 410.565 291.757 406.758C288.531 402.952 286.719 397.789 286.719 392.406V322.084C286.718 319.411 287.389 316.798 288.645 314.574L305.493 284.758L304.92 279.346C304.715 277.411 304.152 275.553 303.27 273.904C302.388 272.255 301.209 270.856 299.816 269.806H299.759L292.453 284.156L275.25 317.984V426.234H321.125L318.556 402.961C317.03 405.929 314.882 408.384 312.319 410.09C309.756 411.796 306.865 412.696 303.922 412.703Z" fill="#CCD6E0"/>
<path d="M251.315 339.75L240.844 426.235H252.312L258.047 345.047L251.315 339.75Z" fill="white"/>
<path d="M249.124 251.58L240.844 248.704V250.328L252.312 290.922L223.641 304.453L232.976 313.262L263.781 297.687L249.124 251.58Z" fill="white"/>
<path d="M114.688 426.235H126.156L115.685 339.75L108.953 345.047L114.688 426.235Z" fill="white"/>
<path d="M114.688 290.922L126.156 250.328V248.704L117.876 251.58L103.219 297.687L134.024 313.262L143.359 304.453L114.688 290.922Z" fill="white"/>
<path d="M169.738 278.744L166.297 270.625L143.359 243.562V257.094L166.297 284.156L169.738 278.744Z" fill="#8394B2"/>
<path d="M197.262 278.744L200.702 284.156L223.64 257.094V243.562L200.702 270.625L197.262 278.744Z" fill="#8394B2"/>
<path d="M169.738 278.744L183.5 257.094L197.263 278.744L200.703 270.625L183.5 243.562L166.297 270.625L169.738 278.744Z" fill="#0F3D91"/>
<path d="M188.661 297.688H196.058L194.969 284.156H172.031L160.562 426.234H172.031L177.192 310.542C177.339 307.072 178.612 303.802 180.748 301.409C182.883 299.016 185.716 297.683 188.661 297.688Z" fill="#0F3D91"/>
<path d="M212.745 365.344L217.906 426.234H200.703L194.969 365.344H212.745Z" fill="#2B2B37"/>
<path d="M212.745 365.344L212.172 358.578H292.453L298.188 426.234H217.906L212.745 365.344Z" fill="#0065FF"/>
<path d="M275.25 392.406H303.922V426.234H263.781V405.938C263.781 402.349 264.99 398.907 267.14 396.369C269.291 393.832 272.208 392.406 275.25 392.406Z" fill="#F4BAA6"/>
<path d="M217.908 426.234L212.747 365.344H207.156L210.562 397.494C210.762 399.374 210.624 401.282 210.159 403.096C209.694 404.909 208.911 406.587 207.861 408.021C206.811 409.454 205.518 410.612 204.065 411.419C202.612 412.225 201.032 412.663 199.426 412.703L200.705 426.234H217.908Z" fill="#222430"/>
<path d="M271.104 399.172H269.516C267.995 399.172 266.536 399.885 265.461 401.153C264.385 402.422 263.781 404.143 263.781 405.938C263.781 407.732 263.177 409.453 262.102 410.722C261.026 411.99 259.568 412.703 258.047 412.703H239.502C236.706 412.704 234.006 411.5 231.91 409.317C229.814 407.134 228.466 404.123 228.119 400.85L223.641 358.578H212.172L212.745 365.344L217.906 426.234H269.516V405.938C269.528 403.556 270.076 401.221 271.104 399.172Z" fill="#003CBF"/>
<path d="M292.453 419.469H280.984C279.464 419.469 278.005 418.756 276.93 417.487C275.854 416.218 275.25 414.497 275.25 412.703V399.172C275.25 397.378 275.854 395.657 276.93 394.388C278.005 393.119 279.464 392.406 280.984 392.406H275.25C272.208 392.406 269.291 393.832 267.14 396.369C264.99 398.907 263.781 402.349 263.781 405.938V426.234H303.922V405.938C303.922 409.526 302.714 412.968 300.563 415.506C298.412 418.043 295.495 419.469 292.453 419.469Z" fill="#D68975"/>
</svg>
